<?xml version="1.0" standalone="no"?>
<!DOCTYPE svg PUBLIC "-//W3C//DTD SVG 20010904//EN"
 "http://www.w3.org/TR/2001/REC-SVG-20010904/DTD/svg10.dtd">
<svg version="1.0" xmlns="http://www.w3.org/2000/svg"
 width="1000.000000pt" height="1000.000000pt" viewBox="0 0 1000.000000 1000.000000"
 preserveAspectRatio="xMidYMid meet">
<metadata>
Created by potrace 1.11, written by Peter Selinger 2001-2013
</metadata>
<g transform="translate(0.000000,1000.000000) scale(0.100000,-0.100000)"
fill="#000000" stroke="none">
<path d="M5648 9365 c-3 -4 -32 -8 -65 -10 -32 -3 -78 -7 -103 -10 -25 -3 -67
-8 -95 -11 -76 -9 -125 -16 -255 -40 -114 -22 -122 -23 -145 -29 -24 -6 -103
-25 -130 -32 -11 -3 -27 -6 -35 -8 -8 -1 -22 -5 -30 -8 -13 -5 -52 -15 -85
-22 -35 -8 -360 -119 -382 -131 -16 -7 -32 -14 -36 -14 -5 0 -33 -11 -63 -25
-30 -14 -57 -25 -60 -25 -2 0 -44 -19 -92 -42 -48 -23 -89 -42 -92 -43 -3 0
-21 -9 -40 -19 -118 -63 -180 -96 -215 -116 -22 -13 -49 -28 -60 -34 -32 -18
-261 -164 -280 -179 -5 -4 -48 -35 -95 -69 -75 -54 -231 -178 -324 -256 -53
-46 -369 -364 -423 -427 -83 -97 -85 -100 -148 -180 -50 -64 -111 -148 -191
-260 -25 -37 -104 -157 -104 -159 0 -2 -25 -44 -55 -94 -108 -179 -335 -657
-335 -705 0 -5 -7 -23 -15 -40 -13 -29 -70 -198 -81 -239 -2 -10 -6 -26 -9
-35 -30 -115 -37 -140 -42 -153 -3 -8 -7 -22 -8 -30 -2 -13 -21 -93 -40 -175
-3 -10 -7 -37 -10 -60 -3 -22 -9 -49 -12 -60 -3 -11 -7 -31 -8 -45 -3 -25 -12
-90 -19 -125 -2 -11 -7 -51 -11 -90 -4 -38 -9 -83 -11 -100 -12 -110 -24 -401
-17 -421 3 -8 78 -11 254 -11 l249 0 0 31 c2 89 9 241 15 297 12 127 15 154
19 179 3 14 7 48 11 75 3 28 9 66 12 85 3 19 6 43 7 53 0 9 3 17 6 17 3 0 6
12 7 28 1 15 3 34 5 42 4 14 27 116 33 150 2 8 4 15 5 15 2 0 5 15 14 54 18
79 117 384 146 446 5 11 26 61 46 110 43 104 185 388 196 393 5 2 8 8 8 13 0
38 325 505 435 625 20 21 63 69 96 106 48 54 197 203 268 268 46 43 214 181
266 220 33 25 62 47 65 51 3 3 68 47 145 97 77 51 146 97 153 103 6 5 12 7 12
3 0 -4 8 0 18 8 16 14 42 29 175 102 26 14 54 26 62 26 7 0 15 3 17 8 4 9 164
86 174 83 4 -2 10 1 13 6 6 8 19 13 121 51 25 9 47 19 50 22 3 3 12 7 20 9 8
2 67 22 130 43 63 22 122 41 130 43 8 2 56 15 105 28 50 14 101 27 115 30 103
23 169 37 195 40 17 3 37 8 45 11 8 3 35 8 60 10 25 2 45 5 45 6 0 1 18 4 40
6 22 2 60 6 85 9 111 13 262 24 368 26 45 1 84 5 87 9 6 10 7 66 3 300 l-3
195 -125 0 c-69 1 -135 -2 -147 -7 -12 -4 -23 -3 -25 3 -2 6 -6 7 -10 4z"/>
<path d="M5704 8341 c-2 -3 -23 -5 -47 -7 -23 -1 -67 -5 -97 -9 -30 -4 -71 -8
-90 -11 -55 -6 -79 -10 -168 -28 -45 -10 -93 -19 -105 -20 -12 -2 -29 -6 -37
-9 -8 -3 -40 -11 -70 -18 -30 -6 -95 -25 -145 -41 -49 -16 -97 -31 -105 -32
-14 -4 -80 -28 -125 -46 -92 -37 -209 -86 -250 -106 -27 -13 -53 -22 -56 -21
-4 1 -15 -5 -25 -14 -11 -9 -55 -35 -99 -58 -92 -48 -108 -58 -152 -89 -18
-13 -33 -19 -33 -15 0 4 -4 4 -8 -2 -4 -5 -34 -28 -67 -50 -54 -35 -133 -91
-160 -113 -5 -4 -26 -19 -45 -32 -19 -13 -39 -29 -45 -35 -5 -6 -32 -29 -60
-51 -187 -147 -496 -481 -625 -674 -8 -12 -23 -33 -33 -45 -9 -13 -17 -26 -17
-29 0 -4 -9 -16 -20 -28 -11 -12 -20 -28 -20 -35 0 -7 -4 -13 -9 -13 -5 0 -12
-9 -16 -19 -3 -11 -16 -35 -29 -53 -34 -51 -138 -247 -174 -328 -11 -25 -31
-70 -45 -100 -13 -30 -28 -66 -32 -80 -4 -14 -11 -30 -16 -36 -5 -6 -10 -19
-12 -30 -1 -10 -5 -23 -9 -29 -3 -5 -15 -40 -27 -78 -11 -37 -25 -75 -30 -85
-5 -9 -11 -30 -14 -47 -3 -16 -11 -46 -17 -65 -6 -19 -14 -48 -17 -65 -3 -16
-9 -38 -14 -47 -5 -10 -8 -18 -5 -18 2 0 -2 -27 -10 -60 -7 -33 -16 -78 -19
-101 -3 -23 -8 -45 -11 -50 -3 -5 -7 -31 -9 -57 -2 -26 -4 -47 -5 -47 -1 0 -3
-16 -6 -35 -19 -145 -35 -414 -26 -437 3 -10 63 -13 253 -13 l249 0 1 78 c2
99 5 155 13 217 3 28 9 73 12 100 3 28 9 73 14 100 5 28 12 66 15 85 3 19 11
53 17 75 6 22 12 50 14 63 4 36 82 287 104 337 5 11 21 52 35 90 32 82 147
314 181 365 13 19 24 40 24 46 0 6 9 19 20 29 11 10 20 24 20 32 0 7 5 13 10
13 6 0 10 5 10 10 0 9 35 65 50 80 3 3 21 28 39 55 19 28 38 52 41 55 3 3 21
25 40 50 86 112 242 276 343 363 27 23 63 55 80 70 69 62 299 227 316 227 5 0
11 4 13 8 6 17 307 179 388 209 25 9 50 20 55 23 21 15 243 95 290 106 6 1 35
9 66 18 31 9 65 18 75 21 11 2 62 13 114 25 52 11 115 23 140 25 25 2 54 6 65
8 55 12 271 29 362 29 l42 0 0 253 1 253 -126 -2 c-69 0 -127 -3 -130 -5z"/>
<path d="M5787 7254 c-1 -1 -33 -5 -72 -8 -108 -10 -152 -16 -265 -41 -134
-29 -232 -55 -245 -65 -5 -4 -23 -10 -40 -14 -16 -4 -43 -13 -60 -21 -16 -7
-55 -23 -85 -35 -102 -42 -270 -128 -282 -145 -4 -5 -8 -7 -8 -3 0 8 -205
-126 -229 -150 -8 -7 -25 -21 -39 -30 -72 -47 -301 -273 -388 -382 -32 -41
-62 -76 -66 -78 -5 -2 -8 -8 -8 -13 0 -6 -8 -18 -17 -29 -25 -26 -143 -217
-143 -230 0 -5 -4 -10 -10 -10 -5 0 -10 -9 -10 -19 0 -11 -3 -21 -7 -23 -10
-4 -66 -120 -108 -223 -33 -80 -116 -341 -115 -362 0 -2 0 -4 -1 -5 0 -2 -2
-14 -5 -28 -2 -14 -9 -47 -14 -75 -21 -105 -26 -152 -35 -322 l-6 -113 254 0
254 0 2 43 c3 80 10 176 16 209 20 121 29 163 50 245 13 50 29 101 35 112 6
12 7 21 3 21 -4 0 -2 5 5 12 7 7 12 21 12 33 0 12 5 26 12 33 6 6 13 17 14 24
3 23 77 172 122 248 89 149 157 234 302 381 105 106 216 196 321 260 30 19 64
40 75 46 31 21 197 100 254 123 91 36 225 77 243 74 9 -1 17 1 17 5 0 4 8 7
18 8 9 0 55 8 102 17 47 9 132 19 190 22 58 3 110 7 117 9 9 3 12 70 13 255
l0 251 -85 -2 c-47 -2 -86 -4 -88 -5z"/>
<path d="M5965 5419 c-17 -4 -27 -7 -23 -8 4 0 0 -18 -9 -38 -17 -42 -169
-468 -177 -498 -2 -5 -9 -23 -15 -40 -7 -16 -19 -48 -26 -70 -7 -22 -22 -64
-33 -93 -11 -29 -21 -55 -22 -57 -2 -10 -12 -41 -20 -60 -4 -11 -15 -40 -23
-65 -54 -155 -109 -307 -116 -320 -5 -9 -12 -31 -16 -50 -4 -19 -11 -41 -16
-50 -5 -8 -22 -53 -38 -100 -16 -47 -46 -130 -66 -185 -20 -55 -38 -104 -39
-110 -2 -5 -6 -17 -9 -25 -4 -8 -20 -53 -36 -100 -16 -47 -46 -130 -66 -185
-20 -55 -38 -107 -40 -115 -6 -20 -78 -221 -127 -352 -22 -59 -41 -113 -42
-120 -2 -7 -9 -26 -15 -43 -7 -16 -14 -37 -16 -45 -2 -8 -13 -40 -25 -70 -11
-30 -35 -98 -53 -150 -18 -52 -35 -96 -39 -98 -5 -2 -8 -13 -8 -24 0 -11 -6
-34 -14 -51 -16 -36 -60 -157 -62 -172 -2 -11 -60 -166 -74 -200 -5 -11 -12
-31 -15 -45 -4 -14 -23 -68 -42 -120 -20 -52 -36 -99 -38 -105 -1 -5 -5 -17
-8 -25 -4 -8 -16 -42 -27 -75 -12 -33 -25 -69 -30 -80 -5 -11 -28 -74 -51
-140 -23 -66 -64 -183 -91 -260 -28 -77 -52 -150 -55 -163 -3 -12 -9 -25 -14
-28 -5 -3 -9 -11 -9 -19 0 -8 -5 -26 -12 -42 -6 -15 -12 -31 -12 -35 -1 -3 -4
-10 -8 -14 -5 -4 -8 -17 -8 -29 0 -11 -5 -26 -12 -33 -8 -8 104 -11 468 -12
l479 0 53 157 c29 87 55 165 57 173 6 25 48 144 56 161 4 9 11 33 14 53 4 20
11 39 16 42 5 3 9 11 9 19 0 8 5 26 12 42 6 15 12 33 13 38 3 12 134 403 142
425 4 8 5 19 4 24 -1 5 7 6 19 3 11 -3 20 -1 20 4 0 5 11 4 25 -1 16 -6 25 -6
25 0 0 5 9 6 22 1 12 -4 38 -5 59 -1 21 4 43 4 50 -1 7 -4 21 -3 30 2 12 6 20
5 24 -1 4 -6 11 -8 16 -4 13 8 79 11 79 4 0 -7 69 -4 76 3 4 4 14 2 23 -2 9
-5 18 -10 21 -12 3 -1 14 3 26 9 11 6 26 7 34 2 7 -4 23 -4 36 0 12 5 25 6 28
3 7 -8 203 -6 215 2 5 3 12 1 16 -5 4 -6 13 -7 23 -1 11 6 24 6 34 0 11 -6 19
-6 23 1 4 6 13 7 23 1 9 -5 19 -10 22 -12 3 -1 14 3 26 9 11 6 26 7 34 2 7 -4
24 -4 36 0 13 5 26 5 29 1 3 -5 20 -5 39 -1 19 4 40 4 47 -1 7 -4 21 -3 30 2
12 6 20 5 24 -1 4 -6 11 -8 16 -4 13 8 79 11 79 4 0 -4 68 -4 80 0 3 2 10 1
15 0 21 -5 125 -1 135 5 5 3 10 3 10 -2 0 -4 16 -8 35 -8 19 0 35 3 35 7 0 4
11 3 25 -2 16 -6 25 -6 25 0 0 5 7 7 16 3 9 -3 28 -6 42 -7 25 -1 29 -10 74
-141 26 -77 48 -141 48 -142 3 -10 11 -36 17 -50 3 -10 7 -20 7 -23 3 -10 107
-325 113 -340 3 -8 38 -109 77 -225 l71 -210 473 -3 c308 -1 472 1 472 8 0 10
-84 252 -120 345 -10 28 -29 82 -42 120 -13 39 -27 73 -33 77 -5 4 -7 8 -3 8
4 0 -2 24 -13 53 -12 28 -22 58 -22 65 0 6 -5 12 -10 12 -6 0 -8 3 -4 6 3 3
-8 43 -24 87 -17 45 -39 109 -50 142 -12 33 -24 69 -29 80 -5 11 -19 49 -31
85 -12 36 -27 71 -32 78 -5 6 -7 12 -3 12 5 0 -10 48 -34 105 -26 62 -48 134
-43 139 4 3 1 6 -5 6 -7 0 -11 3 -10 8 0 4 -1 14 -5 22 -3 8 -24 69 -47 135
-23 66 -48 136 -55 155 -20 53 -28 74 -31 85 -1 6 -21 62 -44 125 -23 63 -62
174 -86 245 -25 72 -49 139 -54 150 -5 11 -16 43 -25 70 -10 28 -20 57 -23 65
-3 8 -6 17 -7 20 -1 3 -4 12 -7 20 -4 8 -11 29 -16 45 -6 17 -25 68 -42 115
-17 47 -33 92 -35 100 -2 8 -4 16 -5 18 -2 1 -3 5 -4 10 -1 4 -6 21 -13 37 -6
17 -26 71 -43 120 -18 50 -36 99 -41 110 -4 11 -15 40 -23 65 -16 49 -104 297
-131 370 -9 25 -18 50 -19 55 -2 6 -6 17 -9 25 -7 18 -53 148 -73 210 -8 25
-19 54 -24 65 -5 11 -36 99 -70 195 -87 247 -119 338 -140 395 -10 28 -24 68
-31 90 -7 22 -16 45 -19 50 -4 6 -12 30 -20 55 -7 25 -16 48 -20 53 -3 4 -87
7 -186 7 -201 -1 -194 -1 -249 1 -22 0 -44 0 -50 -1 -12 -1 -133 0 -192 2 -24
1 -45 -1 -49 -5 -3 -3 -17 -2 -30 3 -15 6 -24 6 -24 0 0 -5 -7 -7 -17 -3 -21
8 -81 8 -89 0 -3 -3 -17 -2 -30 3 -16 6 -24 6 -24 -1 0 -6 -5 -7 -11 -4 -15
10 -68 11 -104 4z m565 -1088 c12 -36 23 -70 25 -76 1 -5 5 -17 8 -25 7 -17
167 -490 171 -505 3 -11 7 -23 25 -75 48 -141 134 -397 136 -405 2 -10 11 -36
25 -70 10 -27 120 -356 125 -375 2 -8 13 -39 24 -67 10 -29 17 -53 15 -53 -3
0 2 -12 10 -27 8 -16 16 -39 17 -52 l4 -25 -632 0 c-616 -1 -663 1 -636 28 5
5 69 181 78 216 2 8 29 89 60 180 31 91 57 170 59 175 4 19 57 180 66 200 11
27 124 368 125 377 0 3 3 10 8 14 4 4 7 13 7 20 0 7 5 25 11 41 6 15 11 30 12
33 0 3 34 102 75 220 40 118 74 220 76 225 21 80 28 91 56 91 25 0 30 -6 50
-65z"/>
</g>
</svg>
