<?xml version="1.0" encoding="UTF-8"?>
<svg width="197px" height="56px" viewBox="0 0 197 56" version="1.1" xmlns="http://www.w3.org/2000/svg" xmlns:xlink="http://www.w3.org/1999/xlink">
    <!-- Generator: Sketch 59.1 (86144) - https://sketch.com -->
    <title>AirCasting-Logo-Body</title>
    <desc>Created with Sketch.</desc>
    <g id="Page-1" stroke="none" stroke-width="1" fill="none" fill-rule="evenodd">
        <g id="AirCasting-Logo-Body" fill="#00B5EF" fill-rule="nonzero">
            <g id="Group" transform="translate(15.811765, 21.082353)">
                <path d="M17.3270588,20.72 L7.51058824,20.72 L5.36941176,27.0447059 L0.0988235294,27.0447059 L9.45411765,0.856470588 L15.4164706,0.856470588 L24.7388235,27.0447059 L19.4682353,27.0447059 L17.3270588,20.72 Z M15.9764706,16.6352941 L12.5835294,6.52235294 L12.2870588,6.52235294 L8.89411765,16.6352941 L15.9764706,16.6352941 Z" id="Shape"></path>
                <path d="M26.6494118,3.06352941 C26.6494118,1.41647059 28.0329412,0.131764706 29.6141176,0.131764706 C31.1952941,0.131764706 32.48,1.41647059 32.48,3.06352941 C32.48,4.61176471 31.1623529,5.92941176 29.6141176,5.92941176 C28.0658824,5.92941176 26.6494118,4.57882353 26.6494118,3.06352941 Z M27.2094118,8.33411765 L31.9858824,8.33411765 L31.9858824,27.0447059 L27.2094118,27.0447059 L27.2094118,8.33411765 Z" id="Shape"></path>
                <path d="M36.1035294,8.33411765 L40.4517647,8.33411765 L40.9129412,11.0023529 L41.2094118,11.0023529 C42.3623529,9.12470588 43.6470588,7.97176471 46.7764706,7.97176471 L48.1270588,7.97176471 L48.1270588,12.7482353 C47.4682353,12.6494118 46.7764706,12.5835294 46.1176471,12.5835294 C42,12.5835294 40.9129412,15.6141176 40.9129412,18.3152941 L40.9129412,27.0447059 L36.1364706,27.0447059 L36.1035294,8.33411765 Z" id="Path"></path>
                <path d="M63.4776471,27.4070588 C55.4729412,27.4070588 50.5976471,21.7411765 50.5976471,14.0329412 C50.5976471,6.09411765 55.7694118,0.461176471 63.4776471,0.461176471 C69.3741176,0.461176471 74.1176471,3.59058824 75.0070588,9.42117647 L69.7035294,9.42117647 C68.88,6.72 66.6729412,5.04 63.4776471,5.04 C58.8,5.04 55.6705882,8.96 55.6705882,14.0658824 C55.6705882,19.3364706 59.0305882,22.8611765 63.4776471,22.8611765 C66.8705882,22.8611765 69.2752941,21.1811765 70.0988235,18.6447059 L75.4023529,18.6447059 C74.5458824,24.2447059 69.5388235,27.4070588 63.4776471,27.4070588 Z" id="Path"></path>
                <path d="M96.8141176,23.4541176 L96.8141176,27.0447059 L94.8047059,27.0447059 C93.0588235,27.0447059 91.6752941,26.5176471 91.0164706,24.8047059 C89.7317647,26.4188235 87.7882353,27.44 84.8564706,27.44 C81.0352941,27.44 78.2352941,25.6282353 78.2352941,21.9388235 C78.2352941,18.3482353 80.9694118,16.6023529 84.3952941,16.24 L90.2258824,15.6470588 L90.2258824,14.8564706 C90.2258824,12.8141176 88.9082353,11.7929412 87.0964706,11.7929412 C85.0870588,11.7929412 84.0329412,12.9129412 83.7364706,14.5929412 L78.96,14.5929412 C79.3223529,10.7058824 82.32,7.97176471 87.1294118,7.97176471 C91.5105882,7.97176471 95.0682353,10.1788235 95.0682353,15.1858824 L95.0682353,22.0376471 C95.0682353,23.0258824 95.5294118,23.4541176 96.4188235,23.4541176 L96.8141176,23.4541176 L96.8141176,23.4541176 Z M90.2258824,18.9411765 L86.0423529,19.4023529 C84.3294118,19.6 83.0117647,20.2917647 83.0117647,21.7741176 C83.0117647,23.2564706 84.1647059,23.7835294 85.68,23.7835294 C87.6894118,23.7835294 90.2588235,22.7952941 90.2588235,19.8635294 L90.2588235,18.9411765 L90.2258824,18.9411765 Z" id="Shape"></path>
                <path d="M98.7576471,21.0494118 L103.369412,21.0494118 C103.632941,23.0588235 105.115294,23.8494118 107.025882,23.8494118 C108.475294,23.8494118 109.76,23.2894118 109.76,21.9388235 C109.76,20.5223529 108.475294,19.9294118 106.465882,19.4023529 L104.72,18.9411765 C102.216471,18.3482353 99.3835294,17.3270588 99.3835294,13.6705882 C99.3835294,9.91529412 102.677647,7.93882353 106.367059,7.93882353 C111.407059,7.93882353 113.745882,10.6070588 114.009412,13.6705882 L109.397647,13.6705882 C109.2,12.32 108.178824,11.4964706 106.4,11.4964706 C104.950588,11.4964706 103.929412,12.2211765 103.929412,13.4070588 C103.929412,14.7247059 105.214118,15.0541176 106.992941,15.5482353 L108.738824,16.0094118 C112,16.8329412 114.305882,18.3152941 114.305882,21.84 C114.305882,25.6941176 111.011765,27.4070588 107.058824,27.4070588 C101.788235,27.4070588 99.0211765,24.9035294 98.7576471,21.0494118 Z" id="Path"></path>
                <path d="M120.136471,21.9717647 L120.136471,12.1223529 L116.117647,12.1223529 L116.117647,8.33411765 L117.402353,8.33411765 C119.675294,8.33411765 120.597647,7.51058824 120.597647,5.50117647 L120.597647,3.26117647 L124.945882,3.26117647 L124.945882,8.36705882 L129.854118,8.36705882 L129.854118,12.1552941 L124.945882,12.1552941 L124.945882,21.3458824 C124.945882,22.4 125.209412,23.6517647 127.449412,23.6517647 C128.009412,23.6517647 128.734118,23.5529412 129.294118,23.3882353 L129.294118,27.0117647 C128.470588,27.2094118 127.350588,27.4070588 126,27.4070588 C120.729412,27.4070588 120.136471,24.0141176 120.136471,21.9717647 Z" id="Path"></path>
                <path d="M131.929412,3.06352941 C131.929412,1.41647059 133.312941,0.131764706 134.894118,0.131764706 C136.475294,0.131764706 137.76,1.41647059 137.76,3.06352941 C137.76,4.61176471 136.442353,5.92941176 134.894118,5.92941176 C133.312941,5.92941176 131.929412,4.57882353 131.929412,3.06352941 Z M132.489412,8.33411765 L137.265882,8.33411765 L137.265882,27.0447059 L132.489412,27.0447059 L132.489412,8.33411765 Z" id="Shape"></path>
                <path d="M141.383529,8.33411765 L145.764706,8.33411765 L146.16,10.5411765 L146.456471,10.5411765 C147.576471,9.09176471 149.157647,7.97176471 151.957647,7.97176471 C156.404706,7.97176471 159.237647,10.8047059 159.237647,15.7129412 L159.237647,27.0447059 L154.494118,27.0447059 L154.494118,16.6682353 C154.494118,13.6047059 152.748235,12.0894118 150.475294,12.0894118 C148.202353,12.0894118 146.16,13.5388235 146.16,16.8658824 L146.16,27.0117647 L141.383529,27.0117647 L141.383529,8.33411765 Z" id="Path"></path>
                <path d="M177.981176,10.9035294 C178.771765,11.9247059 179.167059,13.1105882 179.167059,14.4282353 C179.167059,18.3811765 175.774118,20.72 171.294118,20.72 C170.141176,20.72 169.087059,20.5552941 168.164706,20.3247059 C167.571765,20.6211765 167.275294,21.0494118 167.275294,21.5435294 C167.275294,22.6305882 168.461176,22.96 169.745882,22.96 L173.402353,22.96 C177.882353,22.96 180.221176,25.1341176 180.221176,28.4941176 C180.221176,32.5129412 176.861176,34.8847059 171.425882,34.8847059 C165.463529,34.8847059 162.696471,31.92 162.334118,28.5929412 L165.167059,26.0894118 C163.849412,25.3647059 163.025882,24.1458824 163.025882,22.6305882 C163.025882,20.8847059 164.178824,19.6988235 165.529412,18.9741176 C164.145882,17.8870588 163.322353,16.3388235 163.322353,14.3952941 C163.322353,10.7388235 166.287059,7.90588235 171.063529,7.90588235 C172.710588,7.90588235 174.192941,8.23529412 175.411765,8.82823529 C176.597647,8.23529412 177.882353,7.18117647 178.64,6.16 L181.011765,8.79529412 C180.418824,9.48705882 179.265882,10.3105882 177.981176,10.9035294 Z M172.842353,26.7152941 L169.449412,26.7152941 L166.978824,28.8235294 C167.374118,30.1411765 168.790588,31.3270588 171.491765,31.3270588 C173.764706,31.3270588 175.675294,30.5035294 175.675294,28.7905882 C175.675294,27.2094118 174.225882,26.7152941 172.842353,26.7152941 Z M174.621176,14.3623529 C174.621176,12.6494118 173.402353,11.3976471 171.327059,11.3976471 C169.218824,11.3976471 167.934118,12.6494118 167.934118,14.3623529 C167.934118,16.0094118 169.251765,17.2282353 171.327059,17.2282353 C173.402353,17.2282353 174.621176,16.0094118 174.621176,14.3623529 Z" id="Shape"></path>
            </g>
            <path d="M25.3317647,0 L25.3317647,2.83294118 C13.0117647,2.83294118 2.96470588,12.88 2.96470588,25.2 L0.164705882,25.2 C0.164705882,11.2988235 11.4635294,0 25.3317647,0 Z" id="Path"></path>
            <path d="M25.3317647,5.69882353 L25.3317647,8.49882353 C16.1082353,8.49882353 8.63058824,16.0094118 8.63058824,25.2 L5.83058824,25.2 C5.83058824,14.4282353 14.5929412,5.69882353 25.3317647,5.69882353 Z" id="Path"></path>
            <path d="M25.3317647,11.7270588 L25.3317647,14.56 C19.4352941,14.56 14.6588235,19.3364706 14.6588235,25.2329412 L11.8588235,25.2329412 C11.8588235,17.7552941 17.92,11.7270588 25.3317647,11.7270588 Z" id="Path"></path>
        </g>
    </g>
</svg>