<svg height="22" viewBox="0 0 105 22" width="105" xmlns="http://www.w3.org/2000/svg" xmlns:xlink="http://www.w3.org/1999/xlink"><mask id="a" fill="#fff"><path d="m0 .08669725h19.9271357v14.10275225h-19.9271357z" fill="#fff" fill-rule="evenodd"/></mask><g fill="none" fill-rule="evenodd"><g fill="#09a7f0"><text font-family="PTSans-Bold, PT Sans, sans-serif" font-size="14" font-weight="bold"><tspan x="30" y="19">AirCasting</tspan></text><path d="m2.83286432 7.04174312c-.23105527.82844037-.23105527 2.52385321 0 3.35229358.17095478.6165138.71366834 1.8013761.99497488 2.1577982.14080402.1830275.15075376.1733945.50251256-.0770643l.36190955-.2600917-.34170855-.5972477c-.56291457-.9922018-.78391959-1.94587157-.73366834-3.19816514.04020101-.89587156.09045226-1.17522936.3517588-1.7821101.55276382-1.30045871 1.51748743-2.38899082 2.77376884-3.11146789l.53276382-.30825688-.16080402-.36605504c-.09045226-.19266055-.19095477-.37568808-.21105528-.40458716-.03015075-.01926605-.32160804.11559633-.64321608.30825688-1.67849246.96330275-2.94472362 2.54311927-3.42723618 4.28669725z"/><path d="m12.6519598 3.20779817.6332663.36605504c.7135679.40458716 1.8090453 1.47385321 2.2310553 2.15779817.4723618.76100917.7537689 1.65688073.8141709 2.55275229.080402 1.13669725-.1005026 1.96513763-.6433166 3.05366973-.2411055.5009174-.4320603.9151376-.4119598.9247706.8040201.5490826.6834171.5972477 1.2461306-.4623853.9649247-1.7821101 1.0050252-4.30596329.1005025-6.01100916-.7336683-1.38715596-1.9194974-2.54311926-3.3668341-3.28486238-.2010051-.10596331-.2311558-.07706422-.4119598.29862385z"/><path d="m5.4961809 7.43669725c-.36180904 1.13669725-.12050251 2.90917435.49246232 3.63165135l.17095477.2022936.33155779-.2697248.32170854-.2697247-.27145728-.6261468c-.23105528-.52018351-.28130654-.7610092-.27125629-1.44495416 0-.69357798.04020101-.90550458.28130654-1.37752293.29145728-.58761468.76391959-1.08853211 1.39698492-1.49311927.3920603-.25045871.4120603-.34678899.13075377-.86697248l-.12060302-.23119266-.65336683.42385321c-.8441206.5587156-1.53758794 1.43532111-1.80904523 2.32155964z"/><path d="m11.9786935 5.76055046c.4522613.26972477 1.1055276.96330275 1.3668341 1.44495413.4823116.91513761.4622111 2.11926605-.0502512 3.10183481l-.2413066.4527523.3920604.2504588.40201.2504587.241206-.4623853c.7135679-1.33899087.7537689-2.69724775.1105528-3.93027528-.3920603-.7706422-1.1458292-1.56055045-1.8493467-1.94587156l-.4119598-.2119266-.1507538.34678899c-.201005.47201835-.201005.47201835.1909548.70321101z"/></g><path d="m2.20984925 2.72614679c-1.42713568 1.74357798-2.08040201 3.3619266-2.19105528 5.50045871-.07025126 1.28119267.05025126 2.2348624.46241206 3.4389908.29135678.8766055 1.15577889 2.4853211 1.32663317 2.4853211.12060301 0 .68341708-.4045871.68341708-.4912844 0-.0288991-.16090452-.3082569-.35175879-.6165137-.81407035-1.3004587-1.1959799-2.6876147-1.18592965-4.33486242 0-1.79174312.4119598-3.15963303 1.35678392-4.5853211.74371859-1.10779817 2.21105528-2.39862385 3.34673367-2.94770642.27135678-.13486239.51256281-.26009174.53256281-.26972477.03025126-.02889908-.36170854-.81880734-.4119598-.81880734-.01005025 0-.24130653.12522936-.52261306.26972477-1.25628141.6646789-2.34170855 1.51238532-3.04522613 2.36972477z" fill="#4cbff5" mask="url(#a)"/><path d="m13.8278392.93440367c.281407.08669725 1.4473367.81880734 1.9899497 1.25229358.9347739.73211009 1.698593 1.66651376 2.2613066 2.7646789 1.0151759 1.97477064 1.2060301 3.98807339.5930653 6.09770645-.201005.703211-.7537688 1.8495413-1.1155779 2.3504587l-.1909548.2600917.3617086.2600918.3619095.2697247.2010051-.2311926c.5025125-.5972477 1.2261306-2.2541285 1.4973869-3.4197248.2211055-.94403669.1708543-3.0151376-.0903518-4.04587155-.2713568-1.03073394-1.0251256-2.56238532-1.6684422-3.39082569-.6732663-.84770642-1.9194975-1.93623853-2.8340703-2.45642202-1.1156784-.63577981-1.0855277-.63577981-1.2763819-.15412844-.1005026.23119266-.1408041.42385322-.0905528.44311927z" fill="#4cbff5" mask="url(#a)"/><path d="m10.6319598 14.1798165c.3919598 1.3197248.7035176 2.4178899.6733668 2.437156-.0201005.0288991-.7236181.0288991-1.54783916.019266l-1.50753769-.0288991.76381909-2.5238532c.42221106-1.3871559.79396985-2.466055.83427136-2.4082568.03015075.0674312.3819095 1.1944954.7839196 2.5045871zm-2.10050251-4.75871558c.10050251.32752293-.02020101.71284408-1.85929649 5.96284408l-1.95979899 5.616055 1.11557789-.0288991 1.11547739-.0288991.4120603-1.396789.42221105-1.3967889 2.0201005-.0288991 2.01999996-.0192661.1609046.5009174c.080402.2793578.2712562.9344037.42201 1.4449542l.2815076.9440367h1.1958794c.9146733 0 1.1859296-.0288991 1.1458291-.1252294-.0201005-.0577982-.8644221-2.6298165-1.8592965-5.7027523-1.6684422-5.1247706-1.819196-5.62568805-1.7186935-5.95321099.1408041-.4912844-.0301507-1.01146789-.462211-1.41605504-.3015075-.2793578-.4321608-.32752294-.9247236-.36605505-.48231158-.02889908-.6431156 0-.92452264.19266055-.62321608.40458716-.8442211 1.05-.60301507 1.80137615z" fill="#09a7f0"/></g></svg>