<?xml version="1.0" encoding="UTF-8"?>
<svg width="91px" height="22px" viewBox="0 0 91 22" version="1.1" xmlns="http://www.w3.org/2000/svg" xmlns:xlink="http://www.w3.org/1999/xlink">
    <!-- Generator: Sketch 53.2 (72643) - https://sketchapp.com -->
    <title>Group</title>
    <desc>Created with Sketch.</desc>
    <defs>
        <polygon id="path-1" points="0 0.0866972477 19.9271357 0.0866972477 19.9271357 14.1894495 0 14.1894495"></polygon>
    </defs>
    <g id="Page-1" stroke="none" stroke-width="1" fill="none" fill-rule="evenodd">
        <g id="Group">
            <text id="AirCasting" font-family="PTSans-Bold, PT Sans" font-size="14" font-weight="bold" fill="#09A7F0">
                <tspan x="30" y="19">AirCasting</tspan>
            </text>
            <g id="AirCastingLogoVector-(1)">
                <path d="M2.83286432,7.04174312 C2.60180905,7.87018349 2.60180905,9.56559633 2.83286432,10.3940367 C3.0038191,11.0105505 3.54653266,12.1954128 3.8278392,12.5518349 C3.96864322,12.7348624 3.97859296,12.7252294 4.33035176,12.4747706 L4.69226131,12.2146789 L4.35055276,11.6174312 C3.78763819,10.6252294 3.56663317,9.67155963 3.61688442,8.41926606 C3.65708543,7.5233945 3.70733668,7.2440367 3.96864322,6.63715596 C4.52140704,5.33669725 5.48613065,4.24816514 6.74241206,3.52568807 L7.27517588,3.21743119 L7.11437186,2.85137615 C7.0239196,2.6587156 6.92341709,2.47568807 6.90331658,2.44678899 C6.87316583,2.42752294 6.58170854,2.56238532 6.2601005,2.75504587 C4.58160804,3.71834862 3.31537688,5.29816514 2.83286432,7.04174312 Z" id="Fill-5" fill="#09A7F0"></path>
                <path d="M12.6519598,3.20779817 L13.2852261,3.57385321 C13.998794,3.97844037 15.0942714,5.04770642 15.5162814,5.73165138 C15.9886432,6.49266055 16.2700503,7.38853211 16.3304523,8.28440367 C16.4108543,9.42110092 16.2299497,10.2495413 15.6871357,11.3380734 C15.4460302,11.8389908 15.2550754,12.253211 15.2751759,12.262844 C16.079196,12.8119266 15.958593,12.8600917 16.5213065,11.8004587 C17.4862312,10.0183486 17.5263317,7.49449541 16.621809,5.78944954 C15.8881407,4.40229358 14.7023116,3.24633028 13.2549749,2.50458716 C13.0539698,2.39862385 13.0238191,2.42752294 12.8430151,2.80321101 L12.6519598,3.20779817 Z" id="Fill-6" fill="#09A7F0"></path>
                <path d="M5.4961809,7.43669725 C5.13437186,8.5733945 5.37567839,10.3458716 5.98864322,11.0683486 L6.15959799,11.2706422 L6.49115578,11.0009174 L6.81286432,10.7311927 L6.54140704,10.1050459 C6.31035176,9.58486239 6.2601005,9.3440367 6.27015075,8.66009174 C6.27015075,7.96651376 6.31035176,7.75458716 6.55145729,7.28256881 C6.84291457,6.69495413 7.31537688,6.1940367 7.94844221,5.78944954 C8.34050251,5.53899083 8.36050251,5.44266055 8.07919598,4.92247706 L7.95859296,4.6912844 L7.30522613,5.11513761 C6.46110553,5.67385321 5.76763819,6.55045872 5.4961809,7.43669725 Z" id="Fill-7" fill="#09A7F0"></path>
                <path d="M11.9786935,5.76055046 C12.4309548,6.03027523 13.0842211,6.72385321 13.3455276,7.20550459 C13.8278392,8.1206422 13.8077387,9.32477064 13.2952764,10.3073394 L13.0539698,10.7600917 L13.4460302,11.0105505 L13.8480402,11.2610092 L14.0892462,10.7986239 C14.8028141,9.45963303 14.8430151,8.10137615 14.199799,6.86834862 C13.8077387,6.09770642 13.0539698,5.30779817 12.3504523,4.92247706 L11.9384925,4.71055046 L11.7877387,5.05733945 C11.5867337,5.5293578 11.5867337,5.5293578 11.9786935,5.76055046 Z" id="Fill-8" fill="#09A7F0"></path>
                <g id="Group-2">
                    <g id="Group-4">
                        <mask id="mask-2" fill="white">
                            <use xlink:href="#path-1"></use>
                        </mask>
                        <g id="Clip-2"></g>
                        <path d="M2.20984925,2.72614679 C0.782713568,4.46972477 0.129447236,6.08807339 0.0187939698,8.2266055 C-0.0514572864,9.50779817 0.0690452261,10.4614679 0.48120603,11.6655963 C0.772562814,12.5422018 1.63698492,14.1509174 1.8078392,14.1509174 C1.92844221,14.1509174 2.49125628,13.7463303 2.49125628,13.659633 C2.49125628,13.6307339 2.33035176,13.3513761 2.13949749,13.0431193 C1.32542714,11.7426606 0.943517588,10.3555046 0.953567839,8.70825688 C0.953567839,6.91651376 1.36552764,5.54862385 2.31035176,4.12293578 C3.05407035,3.01513761 4.52140704,1.72431193 5.65708543,1.17522936 C5.92844221,1.04036697 6.16964824,0.915137615 6.18964824,0.905504587 C6.2198995,0.876605505 5.8279397,0.0866972477 5.77768844,0.0866972477 C5.76763819,0.0866972477 5.53638191,0.211926606 5.25507538,0.356422018 C3.99879397,1.02110092 2.91336683,1.86880734 2.20984925,2.72614679 Z" id="Fill-1" fill="#4CBFF5" mask="url(#mask-2)"></path>
                        <path d="M13.8278392,0.93440367 C14.1092462,1.02110092 15.2751759,1.75321101 15.8177889,2.18669725 C16.7525628,2.91880734 17.5163819,3.85321101 18.0790955,4.95137615 C19.0942714,6.92614679 19.2851256,8.93944954 18.6721608,11.0490826 C18.4711558,11.7522936 17.918392,12.8986239 17.5565829,13.3995413 L17.3656281,13.659633 L17.7273367,13.9197248 L18.0892462,14.1894495 L18.2902513,13.9582569 C18.7927638,13.3610092 19.5163819,11.7041284 19.7876382,10.5385321 C20.0087437,9.59449541 19.9584925,7.5233945 19.6972864,6.49266055 C19.4259296,5.46192661 18.6721608,3.93027523 18.0288442,3.10183486 C17.3555779,2.25412844 16.1093467,1.16559633 15.1947739,0.645412844 C14.0790955,0.00963302752 14.1092462,0.00963302752 13.918392,0.491284404 C13.8178894,0.722477064 13.7775879,0.915137615 13.8278392,0.93440367 Z" id="Fill-3" fill="#4CBFF5" mask="url(#mask-2)"></path>
                    </g>
                    <path d="M10.6319598,14.1798165 C11.0239196,15.4995413 11.3354774,16.5977064 11.3053266,16.6169725 C11.2852261,16.6458716 10.5817085,16.6458716 9.75748744,16.6362385 L8.24994975,16.6073394 L9.01376884,14.0834862 C9.4359799,12.6963303 9.80773869,11.6174312 9.8480402,11.6752294 C9.87819095,11.7426606 10.2299497,12.8697248 10.6319598,14.1798165 Z M8.53145729,9.42110092 C8.6319598,9.74862385 8.51125628,10.133945 6.6721608,15.383945 L4.71236181,21 L5.8279397,20.9711009 L6.94341709,20.9422018 L7.35547739,19.5454128 L7.77768844,18.1486239 L9.79778894,18.1197248 L11.8177889,18.1004587 L11.9786935,18.6013761 C12.0590955,18.8807339 12.2499497,19.5357798 12.4007035,20.0463303 L12.6822111,20.990367 L13.8780905,20.990367 C14.7927638,20.990367 15.0640201,20.9614679 15.0239196,20.8651376 C15.0038191,20.8073394 14.1594975,18.2353211 13.1646231,15.1623853 C11.4961809,10.0376147 11.3454271,9.53669725 11.4459296,9.20917431 C11.5867337,8.71788991 11.4157789,8.19770642 10.9837186,7.79311927 C10.6822111,7.51376147 10.5515578,7.46559633 10.058995,7.42706422 C9.57668342,7.39816514 9.4158794,7.42706422 9.13447236,7.61972477 C8.51125628,8.02431193 8.29025126,8.66972477 8.53145729,9.42110092 Z" id="Fill-9" fill="#09A7F0"></path>
                </g>
            </g>
        </g>
    </g>
</svg>