<?xml version="1.0" encoding="UTF-8"?>
<svg width="11px" height="11px" viewBox="0 0 11 11" version="1.1" xmlns="http://www.w3.org/2000/svg" xmlns:xlink="http://www.w3.org/1999/xlink">
    <g id="Page-1" stroke="none" stroke-width="1" fill="none" fill-rule="evenodd">
        <g id="noun_Scale_165949" fill="#000000" fill-rule="nonzero">
            <path d="M0.392857143,0 C0.28866421,0.00162571208 0.189384833,0.0445764178 0.116860509,0.119402948 C0.0443361843,0.194229477 0.00450808025,0.294802067 0.00613839286,0.398994714 L0,0.392856333 L0,7.17423197 L0,10.607121 C0,10.6822006 0.0216253448,10.7556919 0.0621511786,10.8188949 C0.0621514285,10.8191508 0.0621514285,10.8194067 0.0621511786,10.8196626 C0.0764687736,10.841447 0.0929188887,10.8617525 0.111258321,10.8802787 C0.111258571,10.8805346 0.111258571,10.8807905 0.111258321,10.8810464 C0.138755565,10.9091262 0.170310274,10.9329215 0.204868714,10.9516375 C0.227827592,10.9642468 0.251989879,10.9745286 0.276994929,10.9823294 C0.301997245,10.9899854 0.327701393,10.9951262 0.353725036,10.9976756 C0.366722647,10.9990935 0.379782934,10.9998617 0.392857143,11 L3.83419379,11 L10.6071429,11 C10.6099562,11 10.6127697,11 10.615583,11 C10.6276448,10.9995089 10.6396786,10.9984848 10.6516461,10.9969083 C10.8498967,10.9742872 10.9997078,10.8066573 11,10.607121 L11,0.392856333 C11,0.175896758 10.8241029,0 10.6071429,0 L0.392857143,0 Z M1,1 L10,1 L10,10 L7.57861337,10 L7.57861337,3.79638663 C7.57859269,3.58928841 7.41071159,3.42140731 7.20361337,3.42138663 L1,3.42138663 L1,1 Z M1,4 L7,4 L7,10 L4.3732092,10 L4.3732092,7.01281744 C4.37318788,6.79962964 4.20037036,6.62681212 3.98718256,6.6267908 L1,6.6267908 L1,4 Z M1,7 L4,7 L4,10 L1,10 L1,7 Z" id="Shape"></path>
        </g>
    </g>
</svg>