<?xml version="1.0" encoding="utf-8"?>
<!-- Generator: Adobe Illustrator 23.0.3, SVG Export Plug-In . SVG Version: 6.00 Build 0)  -->
<svg height="22" width="19" version="1.1" id="Layer_1" xmlns="http://www.w3.org/2000/svg" xmlns:xlink="http://www.w3.org/1999/xlink" x="0px" y="0px"
	 viewBox="0 0 19 22" style="enable-background:new 0 0 19 22;" xml:space="preserve">
<style type="text/css">
	.st0{fill-rule:evenodd;clip-rule:evenodd;fill:#FFFFFF;}
	.st1{fill:#242A40;}
	.st2{fill-rule:evenodd;clip-rule:evenodd;fill:#242A40;}
</style>
<g>
	<g>
		<path class="st0" d="M17.2,1H1.8C1.2,1,0.6,1.5,0.6,2.2v11.2c0,0.7,0.5,1.2,1.2,1.2h4.4l3.3,6.4l3.3-6.4h4.4
			c0.7,0,1.2-0.5,1.2-1.2V2.2C18.4,1.5,17.8,1,17.2,1z"/>
		<path class="st1" d="M9.5,21.6c-0.2,0-0.4-0.1-0.4-0.3l-3.1-6.2H1.8c-0.9,0-1.7-0.8-1.7-1.7V2.2c0-0.9,0.8-1.7,1.7-1.7h15.3
			c0.9,0,1.7,0.8,1.7,1.7v11.2c0,0.9-0.8,1.7-1.7,1.7h-4.1l-3.1,6.2C9.9,21.5,9.7,21.6,9.5,21.6z M1.8,1.5c-0.4,0-0.7,0.3-0.7,0.7
			v11.2c0,0.4,0.3,0.7,0.7,0.7h4.4c0.2,0,0.4,0.1,0.4,0.3L9.5,20l2.8-5.6c0.1-0.2,0.3-0.3,0.4-0.3h4.4c0.4,0,0.7-0.3,0.7-0.7V2.2
			c0-0.4-0.3-0.7-0.7-0.7H1.8z"/>
	</g>
</g>
<g>
	<circle class="st2" cx="5" cy="8.7" r="1"/>
	<circle class="st2" cx="9.5" cy="8.7" r="1"/>
	<circle class="st2" cx="14" cy="8.7" r="1"/>
</g>
</svg>
