<?xml version="1.0" encoding="UTF-8"?>
<svg width="11px" height="11px" viewBox="0 0 11 11" version="1.1" xmlns="http://www.w3.org/2000/svg" xmlns:xlink="http://www.w3.org/1999/xlink">
    <!-- Generator: Sketch 55.2 (78181) - https://sketchapp.com -->
    <title>Group</title>
    <desc>Created with Sketch.</desc>
    <g id="Design" stroke="none" stroke-width="1" fill="none" fill-rule="evenodd">
        <g id="Indoor-sessions" transform="translate(-1246.000000, -766.000000)">
            <g id="Heatmap-and-tools" transform="translate(243.000000, 739.000000)">
                <g id="Group" transform="translate(1002.000000, 26.000000)">
                    <path d="M3.5,1 C4.88071187,1 6,2.11928813 6,3.5 C6,4.88071187 4.88071187,6 3.5,6 C2.11928813,6 1,4.88071187 1,3.5 C1,2.11928813 2.11928813,1 3.5,1 Z" id="Rectangle-22" fill="#96D788" transform="translate(3.500000, 3.500000) rotate(237.000000) translate(-3.500000, -3.500000) "></path>
                    <path d="M9.5,1 C10.8807119,1 12,2.11928813 12,3.5 C12,4.88071187 10.8807119,6 9.5,6 C8.11928813,6 7,4.88071187 7,3.5 C7,2.11928813 8.11928813,1 9.5,1 Z" id="Rectangle-22-Copy" fill="#FFD960" transform="translate(9.500000, 3.500000) rotate(237.000000) translate(-9.500000, -3.500000) "></path>
                    <path d="M9.5,7 C10.8807119,7 12,8.11928813 12,9.5 C12,10.8807119 10.8807119,12 9.5,12 C8.11928813,12 7,10.8807119 7,9.5 C7,8.11928813 8.11928813,7 9.5,7 Z" id="Rectangle-22-Copy-2" fill="#E95F5F" transform="translate(9.500000, 9.500000) rotate(237.000000) translate(-9.500000, -9.500000) "></path>
                    <path d="M3.5,7 C4.88071187,7 6,8.11928813 6,9.5 C6,10.8807119 4.88071187,12 3.5,12 C2.11928813,12 1,10.8807119 1,9.5 C1,8.11928813 2.11928813,7 3.5,7 Z" id="Rectangle-22-Copy-3" fill="#FCA443" transform="translate(3.500000, 9.500000) rotate(237.000000) translate(-3.500000, -9.500000) "></path>
                </g>
            </g>
        </g>
    </g>
</svg>