<?xml version="1.0" encoding="UTF-8"?>
<svg width="11px" height="11px" viewBox="0 0 11 11" version="1.1" xmlns="http://www.w3.org/2000/svg" xmlns:xlink="http://www.w3.org/1999/xlink">
    <!-- Generator: Sketch 53.2 (72643) - https://sketchapp.com -->
    <title>noun_Question_670398</title>
    <desc>Created with Sketch.</desc>
    <g id="Symbols" stroke="none" stroke-width="1" fill="none" fill-rule="evenodd" opacity="0.800000012">
        <g id="Parameter-Dark" transform="translate(-200.000000, -1.000000)" fill="#FFFFFF" fill-rule="nonzero">
            <g id="noun_Question_670398" transform="translate(200.000000, 1.000000)">
                <path d="M5.5,1.03935773e-16 C2.46243388,-1.55903659e-16 3.63775204e-16,2.46243388 0,5.5 C-3.63775204e-16,8.53756612 2.46243388,11 5.5,11 C8.53756612,11 11,8.53756612 11,5.5 C11,4.04130931 10.4205374,2.64236278 9.3890873,1.6109127 C8.35763722,0.579462622 6.95869069,5.19678863e-17 5.5,1.03935773e-16 Z M5.42510638,9.11829787 C5.07740201,9.11829787 4.79553191,8.83642778 4.79553191,8.4887234 C4.79553191,8.14101903 5.07740201,7.85914894 5.42510638,7.85914894 C5.77281076,7.85914894 6.05468085,8.14101903 6.05468085,8.4887234 C6.05403685,8.83616068 5.77254366,9.11765387 5.42510638,9.11829787 Z M6.11319149,6.06170213 C6.11319149,6.06170213 6.05117021,6.08393617 6.05117021,6.12021277 L6.05117021,6.61989362 C6.05117021,6.96598227 5.77060993,7.24654255 5.42452128,7.24654255 C5.07843263,7.24654255 4.79787234,6.96598227 4.79787234,6.61989362 L4.79787234,6.12021277 C4.8035104,5.55170638 5.17128611,5.05019404 5.71180851,4.87393617 C6.08509892,4.74936058 6.33213798,4.39427169 6.31914894,4.00095745 C6.29393413,3.52041004 5.9004167,3.14173266 5.41925532,3.135 C5.07857797,3.13649179 4.76885679,3.3329669 4.62234043,3.64053191 C4.47207784,3.95236715 4.09747355,4.08334767 3.78563831,3.93308509 C3.47380307,3.78282251 3.34282254,3.40821822 3.49308511,3.09638298 C3.84563349,2.35743394 4.58999145,1.88544643 5.4087234,1.88170213 L5.42159574,1.88170213 C6.57966045,1.88841536 7.52688569,2.80623328 7.57010638,3.96351064 C7.60199033,4.90752956 7.00995529,5.76036459 6.1143617,6.06053191 L6.11319149,6.06170213 Z" id="Shape"></path>
            </g>
        </g>
    </g>
</svg>