<svg height="11" viewBox="0 0 11 11" width="11" xmlns="http://www.w3.org/2000/svg"><path d="m5.5 0c-3.03756612 0-5.5 2.46243388-5.5 5.5s2.46243388 5.5 5.5 5.5 5.5-2.46243388 5.5-5.5c0-1.45869069-.5794626-2.85763722-1.6109127-3.8890873-1.03145008-1.03145008-2.43039661-1.6109127-3.8890873-1.6109127zm-.07489362 9.11829787c-.34770437 0-.62957447-.28187009-.62957447-.62957447 0-.34770437.2818701-.62957446.62957447-.62957446.34770438 0 .62957447.28187009.62957447.62957446-.000644.34743728-.28213719.62893047-.62957447.62957447zm.68808511-3.05659574s-.06202128.02223404-.06202128.05851064v.49968085c0 .34608865-.28056028.62664893-.62664893.62664893s-.62664894-.28056028-.62664894-.62664893v-.49968085c.00563806-.56850639.37341377-1.07001873.91393617-1.2462766.37329041-.12457559.62032947-.47966448.60734043-.87297872-.02521481-.48054741-.41873224-.85922479-.89989362-.86595745-.34067735.00149179-.65039853.1979669-.79691489.50553191-.15026259.31183524-.52486688.44281576-.83670212.29255318s-.44281577-.52486687-.2925532-.83670211c.35254838-.73894904 1.09690634-1.21093655 1.91563829-1.21468085h.01287234c1.15806471.00671323 2.10528995.92453115 2.14851064 2.08180851.03188395.94401892-.56015109 1.79685395-1.45574468 2.09702127z" fill="#fff" opacity=".8"/></svg>