<svg width="16" height="20" viewBox="0 0 16 20" fill="none" xmlns="http://www.w3.org/2000/svg">
<path d="M1.20511 19.4999C1.31864 19.4999 2.34164 19.4732 3.34791 18.5382C3.34831 18.5382 3.34831 18.5382 3.34831 18.5374C3.56453 18.3365 4.15595 17.9211 4.60251 17.9211C5.07832 17.9211 5.68348 18.3784 5.85712 18.5382C5.96324 18.6367 6.92361 19.4999 8.00008 19.4999C9.07656 19.4999 10.0369 18.6367 10.1434 18.5374C10.3596 18.3365 10.951 17.9211 11.3976 17.9211C11.8734 17.9211 12.4786 18.3784 12.6522 18.5382C12.7583 18.6367 13.7186 19.4999 14.795 19.4999C15.035 19.4999 15.28 19.4627 15.5438 19.3853C15.8147 19.307 16 19.0658 16 18.7924V7.95891C16 3.84615 12.4114 0.5 8 0.5C3.58859 0.5 0 3.84632 0 7.95891V18.7626C0 19.0297 0.176976 19.2661 0.438679 19.3508C0.833081 19.4774 1.11944 19.4968 1.20498 19.5L1.20511 19.4999ZM1.28231 7.95875C1.28231 4.52933 4.2958 1.73897 8.00012 1.73897C11.7044 1.73897 14.7179 4.5295 14.7179 7.95875V18.2566C14.2559 18.213 13.7045 17.7951 13.5409 17.6451C13.4349 17.5458 12.4741 16.6819 11.3976 16.6819C10.3212 16.6819 9.36047 17.5458 9.25482 17.6443C9.03818 17.8452 8.4467 18.2607 8.00014 18.2607C7.52433 18.2607 6.91869 17.8033 6.74594 17.6451C6.63996 17.5458 5.67912 16.6819 4.60263 16.6819C3.5266 16.6819 2.56669 17.5451 2.45984 17.6443C1.93187 18.1348 1.42474 18.2356 1.28243 18.2566L1.28231 7.95875Z" fill="#3E4449"/>
</svg>
