<svg width="115" height="114" viewBox="0 0 115 114" fill="none" xmlns="http://www.w3.org/2000/svg">
<g id="Group 1042">
<g id="Group 1028">
<path id="Vector" opacity="0.1" d="M114.318 107.564C114.503 110.823 111.837 113.5 108.536 113.5C105.25 113.5 102.577 110.823 102.365 107.503C99.1042 56.5166 57.7545 15.53 6.37326 12.3782C3.12112 12.1787 0.499984 9.56008 0.499984 6.34162C0.499985 3.10801 3.12092 0.497618 6.31419 0.670479C64.399 3.81478 111.058 50.0714 114.318 107.564Z" fill="white" stroke="white"/>
<path id="Vector_2" opacity="0.1" d="M88.2692 107.646C88.5031 110.853 85.8733 113.5 82.6108 113.5C79.3684 113.5 76.7286 110.855 76.4486 107.571C73.3109 70.755 43.4866 41.4237 6.35654 38.3933C3.11213 38.1285 0.500175 35.5204 0.500175 32.3174C0.500175 29.095 3.11502 26.4972 6.2841 26.7177C50.1092 29.7667 85.1192 64.4578 88.2692 107.646Z" fill="white" stroke="white"/>
<path id="Vector_3" opacity="0.1" d="M61.1546 107.561C61.5041 110.8 58.829 113.499 55.4976 113.499C52.1972 113.499 49.5092 110.799 49.0535 107.446C46.0888 85.6292 28.5326 68.3918 6.38843 65.5793C3.12545 65.1648 0.500084 62.5487 0.500084 59.338C0.500084 56.0985 3.12373 53.496 6.27946 53.8109C35.2021 56.6969 58.1047 79.301 61.1546 107.561Z" fill="white" stroke="white"/>
</g>
<circle id="Ellipse 22" opacity="0.6" cx="11" cy="103" r="11" fill="white"/>
</g>
</svg>
