<svg width="23" height="24" viewBox="0 0 23 24" fill="none" xmlns="http://www.w3.org/2000/svg">
<g id="heroicons-outline/link">
<path id="Vector" d="M12.2134 8.93373C12.6291 9.13233 13.0188 9.40382 13.3631 9.74817C14.9903 11.3754 14.9903 14.0135 13.3631 15.6407L9.19644 19.8074C7.56926 21.4346 4.93107 21.4346 3.30388 19.8074C1.6767 18.1802 1.6767 15.542 3.30388 13.9148L4.93071 12.288M17.2918 11.712L18.9187 10.0852C20.5458 8.45799 20.5458 5.8198 18.9187 4.19262C17.2915 2.56543 14.6533 2.56543 13.0261 4.19262L8.85944 8.35928C7.23225 9.98647 7.23225 12.6247 8.85944 14.2518C9.2038 14.5962 9.59343 14.8677 10.0092 15.0663" stroke="#3E4449" stroke-width="1.5" stroke-linecap="round" stroke-linejoin="round"/>
</g>
</svg>
