<svg width="15" height="12" viewBox="0 0 15 12" fill="none" xmlns="http://www.w3.org/2000/svg">
<path d="M4.61037 5.61384C3.27704 5.61384 2.16602 4.53794 2.16602 3.18622C2.16602 1.83455 3.27708 0.786194 4.61037 0.786194C5.94365 0.786194 7.05471 1.86209 7.05471 3.21381C7.05471 4.56548 5.94365 5.61384 4.61037 5.61384ZM4.61037 1.88966C3.88819 1.88966 3.27704 2.46895 3.27704 3.21385C3.27704 3.95865 3.86032 4.53805 4.61037 4.53805C5.36029 4.53805 5.94369 3.95876 5.94369 3.21385C5.94369 2.46897 5.33256 1.88966 4.61037 1.88966Z" fill="white"/>
<path d="M1.16658 3.76545H0.555534C0.250013 3.76545 0 3.51715 0 3.21372C0 2.91029 0.250013 2.66199 0.555534 2.66199H1.16658C1.4721 2.66199 1.72211 2.91029 1.72211 3.21372C1.72211 3.51715 1.4721 3.76545 1.16658 3.76545Z" fill="white"/>
<path d="M13.6664 3.76545H8.05553C7.75001 3.76545 7.5 3.51715 7.5 3.21372C7.5 2.91029 7.75001 2.66199 8.05553 2.66199H13.6664C13.9719 2.66199 14.222 2.91029 14.222 3.21372C14.222 3.51715 13.9719 3.76545 13.6664 3.76545Z" fill="white"/>
<path d="M9.61036 11.2138C8.27704 11.2138 7.16602 10.1379 7.16602 8.7862C7.16602 7.43448 8.24933 6.35858 9.61036 6.35858C10.9714 6.35858 12.0547 7.43448 12.0547 8.7862C12.0547 10.1379 10.9436 11.2138 9.61036 11.2138ZM9.61036 7.46204C8.88819 7.46204 8.27704 8.04134 8.27704 8.78624C8.27704 9.53103 8.86032 10.1104 9.61036 10.1104C10.3603 10.1104 10.9437 9.53115 10.9437 8.78624C10.9437 8.04145 10.3326 7.46204 9.61036 7.46204Z" fill="white"/>
<path d="M13.6666 9.33784H13.0555C12.75 9.33784 12.5 9.08953 12.5 8.78611C12.5 8.48268 12.75 8.23438 13.0555 8.23438H13.6666C13.9721 8.23438 14.2221 8.48268 14.2221 8.78611C14.2221 9.08953 13.9721 9.33784 13.6666 9.33784Z" fill="white"/>
<path d="M6.16643 9.33784H0.555534C0.250013 9.33784 0 9.08953 0 8.78611C0 8.48268 0.250013 8.23438 0.555534 8.23438H6.16643C6.47195 8.23438 6.72196 8.48268 6.72196 8.78611C6.72196 9.08953 6.47195 9.33784 6.16643 9.33784Z" fill="white"/>
</svg>
