<svg width="13" height="12" viewBox="0 0 13 12" fill="none" xmlns="http://www.w3.org/2000/svg">
<path d="M4.06937 5.66676C2.94434 5.66676 2.00689 4.73815 2.00689 3.57147C2.00689 2.40484 2.94438 1.5 4.06937 1.5C5.19437 1.5 6.13186 2.42861 6.13186 3.59528C6.13186 4.76192 5.19437 5.66676 4.06937 5.66676ZM4.06937 2.4524C3.46002 2.4524 2.94434 2.95239 2.94434 3.59532C2.94434 4.23816 3.43651 4.73825 4.06937 4.73825C4.70214 4.73825 5.19441 4.23825 5.19441 3.59532C5.19441 2.95241 4.67875 2.4524 4.06937 2.4524Z" fill="#3E4449"/>
<path d="M1.16402 4.0712H0.648435C0.390643 4.0712 0.179688 3.85689 0.179688 3.595C0.179688 3.33311 0.390643 3.1188 0.648435 3.1188H1.16402C1.42181 3.1188 1.63277 3.33311 1.63277 3.595C1.63277 3.85689 1.42181 4.0712 1.16402 4.0712Z" fill="#3E4449"/>
<path d="M11.7102 4.0712H6.97583C6.71804 4.0712 6.50708 3.85689 6.50708 3.595C6.50708 3.33311 6.71804 3.1188 6.97583 3.1188H11.7102C11.968 3.1188 12.1789 3.33311 12.1789 3.595C12.1789 3.85689 11.968 4.0712 11.7102 4.0712Z" fill="#3E4449"/>
<path d="M8.2889 10.5C7.16387 10.5 6.22641 9.57139 6.22641 8.40472C6.22641 7.23804 7.14049 6.30943 8.2889 6.30943C9.43731 6.30943 10.3514 7.23804 10.3514 8.40472C10.3514 9.57139 9.4139 10.5 8.2889 10.5ZM8.2889 7.26184C7.67955 7.26184 7.16387 7.76183 7.16387 8.40476C7.16387 9.04759 7.65603 9.54768 8.2889 9.54768C8.92167 9.54768 9.41393 9.04769 9.41393 8.40476C9.41393 7.76193 8.89827 7.26184 8.2889 7.26184Z" fill="#3E4449"/>
<path d="M11.7109 8.88088H11.1954C10.9376 8.88088 10.7266 8.66657 10.7266 8.40468C10.7266 8.14279 10.9376 7.92847 11.1954 7.92847H11.7109C11.9687 7.92847 12.1797 8.14279 12.1797 8.40468C12.1797 8.66657 11.9687 8.88088 11.7109 8.88088Z" fill="#3E4449"/>
<path d="M5.38278 8.88088H0.648435C0.390643 8.88088 0.179688 8.66657 0.179688 8.40468C0.179688 8.14279 0.390643 7.92847 0.648435 7.92847H5.38278C5.64058 7.92847 5.85153 8.14279 5.85153 8.40468C5.85153 8.66657 5.64058 8.88088 5.38278 8.88088Z" fill="#3E4449"/>
</svg>
