<svg width="42" height="42" viewBox="0 0 42 42" fill="none" xmlns="http://www.w3.org/2000/svg">
<path d="M41.5 21C41.5 9.67816 32.3218 0.5 21 0.5C9.67816 0.5 0.5 9.67816 0.5 21C0.5 32.3218 9.67816 41.5 21 41.5C32.3218 41.5 41.5 32.3218 41.5 21Z" stroke="#C6CDD3"/>
<path d="M21.9375 21C21.9375 21.5178 21.5178 21.9375 21 21.9375C20.4822 21.9375 20.0625 21.5178 20.0625 21C20.0625 20.4822 20.4822 20.0625 21 20.0625C21.5178 20.0625 21.9375 20.4822 21.9375 21Z" fill="#7D858C"/>
<path d="M28.4406 20.0625C28.2324 18.4104 27.4802 16.8748 26.3029 15.6971C25.1254 14.5198 23.5896 13.7676 21.9375 13.5594V11H20.0625V13.5594C18.4104 13.7676 16.8748 14.5198 15.6971 15.6971C14.5198 16.8746 13.7676 18.4104 13.5594 20.0625H11V21.9375H13.5594C13.7676 23.5896 14.5198 25.1252 15.6971 26.3029C16.8746 27.4802 18.4104 28.2324 20.0625 28.4406V31H21.9375V28.4406C23.5896 28.2324 25.1252 27.4802 26.3029 26.3029C27.4802 25.1254 28.2324 23.5896 28.4406 21.9375H31V20.0625H28.4406ZM21 26.625C19.5082 26.625 18.0774 26.0323 17.0227 24.9774C15.968 23.9225 15.3751 22.4918 15.3751 21.0001C15.3751 19.5084 15.9678 18.0775 17.0227 17.0228C18.0776 15.9681 19.5083 15.3752 21 15.3752C22.4917 15.3752 23.9226 15.9679 24.9773 17.0228C26.032 18.0777 26.6249 19.5084 26.6249 21.0001C26.6249 22.4918 26.0322 23.9228 24.9773 24.9774C23.9224 26.0321 22.4917 26.625 21 26.625Z" fill="#7D858C"/>
</svg>
