<svg width="21" height="20" viewBox="0 0 21 20" fill="none" xmlns="http://www.w3.org/2000/svg">
<path d="M4.03391 15.9607C4.36328 15.9607 4.67916 15.8298 4.91204 15.5969C5.14493 15.364 5.27578 15.0482 5.27578 14.7188C5.27578 14.3894 5.14492 14.0735 4.91204 13.8407C4.67916 13.6078 4.36328 13.4769 4.03391 13.4769C3.70454 13.4769 3.38866 13.6078 3.15573 13.8407C2.92284 14.0735 2.79199 14.3894 2.79199 14.7188C2.79186 15.0482 2.92266 15.3642 3.15559 15.5971C3.38848 15.8301 3.70449 15.9608 4.03391 15.9606V15.9607Z" fill="#F4F6F9"/>
<path d="M0.373047 14.7187C0.373047 16.555 2.21805 19.8437 4.03371 19.8437C5.84938 19.8437 7.69371 16.5573 7.69371 14.7187C7.68115 13.7562 7.29 12.8373 6.60491 12.1612C5.91983 11.485 4.996 11.1058 4.03341 11.1058C3.07085 11.1058 2.14708 11.485 1.46191 12.1612C0.77683 12.8373 0.38568 13.7562 0.373047 14.7187ZM4.03371 11.9962H4.03378C4.75553 11.997 5.44758 12.2841 5.95794 12.7945C6.46836 13.3049 6.75541 13.9969 6.75625 14.7187C6.75625 16.3225 5.07691 18.9062 4.03374 18.9062C2.99064 18.9062 1.31058 16.3249 1.31058 14.7187C1.31142 13.9968 1.5986 13.3047 2.10915 12.7944C2.6197 12.284 3.31181 11.997 4.03381 11.9963L4.03371 11.9962Z" fill="#F4F6F9"/>
<path d="M19.9179 0.296241C19.8301 0.208351 19.7109 0.158936 19.5866 0.158936C19.4624 0.158936 19.3432 0.208349 19.2554 0.296241L18.1466 1.40502L17.0372 0.296241C16.9176 0.184782 16.7485 0.143702 16.5911 0.187907C16.4336 0.232047 16.3105 0.355091 16.2664 0.512574C16.2222 0.669995 16.2633 0.83914 16.3747 0.95874L17.4835 2.06746L16.3747 3.17689C16.2817 3.26361 16.2279 3.38437 16.2257 3.51152C16.2234 3.63874 16.2729 3.76132 16.3628 3.85131C16.4528 3.94122 16.5754 3.99076 16.7026 3.98848C16.8298 3.98627 16.9505 3.93243 17.0373 3.83939L18.1466 2.73068L19.2553 3.83939H19.2554C19.3421 3.93243 19.4629 3.98627 19.59 3.98848C19.7172 3.99076 19.8398 3.94122 19.9298 3.85131C20.0197 3.76133 20.0693 3.63874 20.067 3.51152C20.0648 3.38438 20.0109 3.26361 19.9179 3.17689L18.8091 2.06752L19.9179 0.95874C20.0058 0.87098 20.0552 0.751774 20.0552 0.62749C20.0552 0.503272 20.0058 0.384074 19.9179 0.296241Z" fill="#F4F6F9"/>
<path d="M12.4957 8.51571V4.62504C12.4957 3.44067 12.0252 2.30487 11.1877 1.46737C10.3503 0.629941 9.2144 0.159424 8.03007 0.159424C6.8457 0.159424 5.7099 0.629924 4.8724 1.46737C4.0349 2.30487 3.56445 3.44071 3.56445 4.62504V9.20437C3.56445 9.37189 3.65378 9.52658 3.79882 9.61036C3.94381 9.69408 4.12252 9.69408 4.26757 9.61036C4.41256 9.52657 4.50194 9.37187 4.50194 9.20437V4.62504C4.50194 3.68929 4.87362 2.79187 5.53527 2.13021C6.19692 1.46856 7.09432 1.09687 8.0301 1.09687C8.96579 1.09687 9.8631 1.46856 10.5248 2.13021C11.1864 2.79186 11.5582 3.68926 11.5582 4.62504V16.3069C11.5582 17.2426 11.9299 18.1399 12.5915 18.8015C13.2532 19.4632 14.1506 19.8349 15.0863 19.8349C16.022 19.8349 16.9193 19.4632 17.581 18.8015C18.2427 18.1399 18.6144 17.2425 18.6144 16.3069V5.17054C18.6144 5.00302 18.525 4.84834 18.38 4.76456C18.235 4.68083 18.0563 4.68083 17.9113 4.76456C17.7662 4.84835 17.6769 5.00304 17.6769 5.17054V16.3069C17.6769 17.2324 17.1831 18.0875 16.3816 18.5504C15.58 19.0132 14.5924 19.0132 13.7909 18.5504C12.9894 18.0876 12.4956 17.2324 12.4956 16.3069L12.4957 8.51571Z" fill="#F4F6F9"/>
</svg>
