<svg width="21" height="20" viewBox="0 0 21 20" fill="none" xmlns="http://www.w3.org/2000/svg">
<path d="M10.2812 10.2281C10.9227 10.2281 11.5497 10.0379 12.083 9.68153C12.6164 9.32515 13.032 8.81858 13.2775 8.226C13.5229 7.63335 13.5871 6.9812 13.462 6.35216C13.3368 5.723 13.0278 5.14513 12.5742 4.69161C12.1206 4.2381 11.5426 3.92925 10.9135 3.80418C10.2844 3.67912 9.63222 3.74344 9.03964 3.98901C8.44705 4.23458 7.94062 4.65035 7.5843 5.18375C7.22805 5.71715 7.03795 6.34423 7.03809 6.98575C7.03906 7.84551 7.38105 8.66975 7.98907 9.27775C8.59707 9.88563 9.42142 10.2275 10.2812 10.2283L10.2812 10.2281ZM10.2812 4.67931C10.8927 4.67931 11.479 4.92221 11.9115 5.35458C12.3438 5.78693 12.5868 6.37326 12.5868 6.98473C12.5869 7.5962 12.344 8.18265 11.9117 8.61506C11.4794 9.04748 10.893 9.29045 10.2816 9.29058C9.6701 9.29071 9.08365 9.04793 8.65124 8.61565C8.21875 8.18335 7.97572 7.59703 7.97559 6.98556C7.97624 6.37423 8.21934 5.7881 8.65157 5.35575C9.0838 4.9234 9.66987 4.68016 10.2812 4.67931Z" fill="#7D858C"/>
<path d="M15.4761 12.2425C16.435 10.647 16.9945 8.84365 17.1074 6.98565C17.1074 5.17532 16.3882 3.43898 15.108 2.15882C13.8279 0.878668 12.0915 0.159485 10.2812 0.159485C8.47086 0.159485 6.73452 0.878685 5.45436 2.15882C4.17421 3.43902 3.45502 5.17532 3.45502 6.98565C3.56785 8.84365 4.12742 10.647 5.08628 12.2425C2.16311 12.9694 0.439941 14.2575 0.439941 15.7457C0.439941 18.0807 4.67061 19.8413 10.2813 19.8413C15.8919 19.8413 20.1226 18.0807 20.1226 15.7457C20.1226 14.2587 18.3994 12.9707 15.4763 12.2425H15.4761ZM10.2811 1.09615C11.8424 1.09797 13.3393 1.71907 14.4433 2.82315C15.5472 3.92725 16.1683 5.42415 16.1698 6.98549C16.1698 10.4373 12.5936 15.7862 10.2811 15.7862C7.96861 15.7862 4.39244 10.4373 4.39244 6.98549C4.39407 5.42415 5.01502 3.92715 6.11894 2.82315C7.22291 1.71905 8.71977 1.09798 10.2811 1.09615ZM10.2811 18.9028C5.03111 18.9028 1.37727 17.2384 1.37727 15.7447C1.37727 14.7209 3.06044 13.6697 5.59478 13.086C6.92914 15.1353 8.68661 16.7228 10.2823 16.7228C11.8779 16.7228 13.6341 15.1353 14.9698 13.086C17.5048 13.671 19.1873 14.7223 19.1873 15.7447C19.1848 17.2385 15.5309 18.9028 10.2809 18.9028H10.2811Z" fill="#7D858C"/>
</svg>
