<svg width="23" height="23" viewBox="0 0 23 23" fill="none" xmlns="http://www.w3.org/2000/svg">
<g id="heroicons-outline/link">
<path id="Vector" d="M12.2129 8.04481C12.6286 8.24342 13.0183 8.5149 13.3626 8.85926C14.9898 10.4864 14.9898 13.1246 13.3626 14.7518L9.19595 18.9185C7.56877 20.5457 4.93058 20.5457 3.3034 18.9185C1.67621 17.2913 1.67621 14.6531 3.3034 13.0259L4.93022 11.3991M17.2913 10.8231L18.9182 9.19626C20.5454 7.56907 20.5454 4.93089 18.9182 3.3037C17.291 1.67652 14.6528 1.67652 13.0256 3.3037L8.85895 7.47037C7.23177 9.09755 7.23177 11.7357 8.85895 13.3629C9.20331 13.7073 9.59294 13.9788 10.0087 14.1774" stroke="#3E4449" stroke-width="1.5" stroke-linecap="round" stroke-linejoin="round"/>
</g>
</svg>
