<svg width="32" height="32" viewBox="0 0 32 32" fill="none" xmlns="http://www.w3.org/2000/svg">
<rect x="0.5" y="0.5" width="31" height="31" rx="11.5" stroke="#DFE7F2"/>
<path d="M13.9932 15.8516V23H13.0898V16.9795L11.2686 17.6436V16.8281L13.8516 15.8516H13.9932ZM17.6504 15.5V23H16.7471V15.5H17.6504ZM17.4355 20.1582L17.0596 20.1436C17.0628 19.7822 17.1165 19.4486 17.2207 19.1426C17.3249 18.8333 17.4714 18.5648 17.6602 18.3369C17.849 18.109 18.0736 17.9333 18.334 17.8096C18.5977 17.6826 18.889 17.6191 19.208 17.6191C19.4684 17.6191 19.7028 17.6549 19.9111 17.7266C20.1195 17.7949 20.2969 17.9056 20.4434 18.0586C20.5931 18.2116 20.707 18.4102 20.7852 18.6543C20.8633 18.8952 20.9023 19.1898 20.9023 19.5381V23H19.9941V19.5283C19.9941 19.2516 19.9535 19.0303 19.8721 18.8643C19.7907 18.695 19.6719 18.5729 19.5156 18.498C19.3594 18.4199 19.1673 18.3809 18.9395 18.3809C18.7148 18.3809 18.5098 18.4281 18.3242 18.5225C18.1419 18.6169 17.984 18.7471 17.8506 18.9131C17.7204 19.0791 17.6178 19.2695 17.543 19.4844C17.4714 19.696 17.4355 19.9206 17.4355 20.1582Z" fill="#00B2EF"/>
<path d="M19.7089 12.4934H25V12.4917M7 13C8.24977 8.68294 13.044 6.121 17.7082 7.27775C19.2467 7.65932 20.579 8.39786 21.6287 9.3713L25 12.4917M25 7.59615V12.4917" stroke="#00B2EF" stroke-width="1.5" stroke-linecap="round" stroke-linejoin="round"/>
</svg>
