<svg width="32" height="32" viewBox="0 0 32 32" fill="none" xmlns="http://www.w3.org/2000/svg">
<rect x="0.5" y="0.5" width="31" height="31" rx="11.5" stroke="#DFE7F2"/>
<path d="M13.9932 15.8515V22.9999H13.0898V16.9794L11.2686 17.6435V16.8281L13.8516 15.8515H13.9932ZM17.6504 15.4999V22.9999H16.7471V15.4999H17.6504ZM17.4355 20.1581L17.0596 20.1435C17.0628 19.7822 17.1165 19.4485 17.2207 19.1425C17.3249 18.8333 17.4714 18.5647 17.6602 18.3369C17.849 18.109 18.0736 17.9332 18.334 17.8095C18.5977 17.6826 18.889 17.6191 19.208 17.6191C19.4684 17.6191 19.7028 17.6549 19.9111 17.7265C20.1195 17.7949 20.2969 17.9055 20.4434 18.0585C20.5931 18.2115 20.707 18.4101 20.7852 18.6542C20.8633 18.8951 20.9023 19.1897 20.9023 19.538V22.9999H19.9941V19.5283C19.9941 19.2516 19.9535 19.0302 19.8721 18.8642C19.7907 18.6949 19.6719 18.5729 19.5156 18.498C19.3594 18.4199 19.1673 18.3808 18.9395 18.3808C18.7148 18.3808 18.5098 18.428 18.3242 18.5224C18.1419 18.6168 17.984 18.747 17.8506 18.913C17.7204 19.079 17.6178 19.2695 17.543 19.4843C17.4714 19.6959 17.4355 19.9205 17.4355 20.1581Z" fill="#00B2EF"/>
<path d="M12.2911 12.4934H7V12.4916M25 12.9999C23.7502 8.68288 18.956 6.12094 14.2918 7.27769C12.7533 7.65926 11.421 8.3978 10.3713 9.37124L7 12.4916M7 7.59609V12.4916" stroke="#00B2EF" stroke-width="1.5" stroke-linecap="round" stroke-linejoin="round"/>
</svg>
