<svg width="27" height="22" xmlns="http://www.w3.org/2000/svg"><g fill="none" fill-rule="evenodd"><path d="M16.41 22c-.14 0-.31-.03-.45-.08l-5.83-2.21c-.45-.17-.76-.61-.8-1.08l-.25-7.35L.33 2.02A1.16 1.16 0 0 1 .11.72C.3.28.76 0 1.24 0h24.52c.48 0 .94.28 1.13.72.2.44.12.94-.22 1.3l-8.8 9.23-.24 9.56c0 .39-.22.75-.54.97-.2.16-.45.22-.68.22zm-4.86-4.09l3.9 1.5.2-8.58c0-.3.1-.58.34-.8l7.47-7.87H3.5L11 10.03c.2.22.3.5.34.78l.22 7.1z" fill="#00b2ef" fill-rule="nonzero"/><path d="M-1-3h28v28H-1z"/></g></svg>