<svg viewBox="0 0 17.14 6.16" xmlns="http://www.w3.org/2000/svg" xmlns:xlink="http://www.w3.org/1999/xlink"><clipPath id="a"><path d="m2.76 2.18h.06l.81-.87a.43.43 0 0 0 0-.61l-.44-.41a.45.45 0 0 0 -.61 0l-2.4 2.57a.45.45 0 0 0 0 .61l2.58 2.41a.43.43 0 0 0 .61 0l.41-.44a.43.43 0 0 0 0-.61l-1-.83h.12v-1.79z"/></clipPath><clipPath id="b"><path d="m-1228.83-804.86h1338.34v836.46h-1338.34z"/></clipPath><clipPath id="c"><path d="m14.16 2.17h.11l-.81-.87a.45.45 0 0 1 0-.61l.44-.41a.45.45 0 0 1 .61 0l2.4 2.58a.45.45 0 0 1 0 .61l-2.58 2.4a.44.44 0 0 1 -.61 0l-.41-.44a.45.45 0 0 1 0-.61l1-.88h-11.7l.08-1.73z"/></clipPath><g clip-path="url(#a)"><g clip-path="url(#b)"><path d="m-4.45-4.36h14.84v14.85h-14.84z" fill="#242a40" transform="matrix(.68199836 -.7313537 .7313537 .68199836 -1.3 3.15)"/></g></g><g clip-path="url(#c)"><g clip-path="url(#b)"><path d="m-1.31-7.45h21.65v21.09h-21.65z" fill="#242a40" transform="matrix(.7313537 -.68199836 .68199836 .7313537 .45 7.32)"/></g></g></svg>