<svg viewBox="0 0 30.19 32.14" xmlns="http://www.w3.org/2000/svg" xmlns:xlink="http://www.w3.org/1999/xlink"><clipPath id="a" transform="translate(11.95 7.43)"><path d="m4.05 2.84v.06l.87.81a.43.43 0 0 0 .61 0l.41-.44a.43.43 0 0 0 0-.61l-2.57-2.4a.45.45 0 0 0 -.61 0l-2.41 2.58a.45.45 0 0 0 0 .61l.44.41a.43.43 0 0 0 .61 0l.88-1v.14h1.72z"/></clipPath><clipPath id="b" transform="translate(11.95 7.43)"><path d="m-25.37-1228.75h836.46v1338.34h-836.46z"/></clipPath><clipPath id="c" transform="translate(11.95 7.43)"><path d="m4.06 14.24v.11l.87-.81a.45.45 0 0 1 .61 0l.46.46a.43.43 0 0 1 0 .61l-2.63 2.39a.43.43 0 0 1 -.61 0l-2.4-2.59a.43.43 0 0 1 0-.6l.44-.41a.45.45 0 0 1 .61 0l.88 1v-11.71l1.71.08z"/></clipPath><g clip-path="url(#a)"><g clip-path="url(#b)"><path d="m-4.25-4.36h14.85v14.84h-14.85z" fill="#242a40" transform="matrix(.68199836 -.7313537 .7313537 .68199836 10.72 10.73)"/></g></g><g clip-path="url(#c)"><g clip-path="url(#b)"><path d="m-7.4-1.23h21.09v21.65h-21.09z" fill="#242a40" transform="matrix(.7313537 -.68199836 .68199836 .7313537 6.25 12.16)"/></g></g></svg>