<?xml version="1.0" encoding="UTF-8"?>
<svg width="16px" height="15px" viewBox="0 0 16 15" version="1.1" xmlns="http://www.w3.org/2000/svg" xmlns:xlink="http://www.w3.org/1999/xlink">
    <!-- Generator: Sketch 53.2 (72643) - https://sketchapp.com -->
    <title>9</title>
    <desc>Created with Sketch.</desc>
    <g id="Design" stroke="none" stroke-width="1" fill="none" fill-rule="evenodd">
        <g id="Desktop-dark" transform="translate(-207.000000, -758.000000)" fill="#FFFFFF" fill-rule="nonzero">
            <g id="Side-nav" transform="translate(0.000000, 44.000000)">
                <path d="M208.085449,727.292969 C207.671059,726.872394 207.463867,726.365237 207.463867,725.771484 C207.463867,725.177731 207.671059,724.670575 208.085449,724.25 L210.952148,721.383301 C211.360354,720.975096 211.853594,720.764811 212.431885,720.752441 C213.010175,720.740072 213.512693,720.931801 213.939453,721.327637 L213.234375,722.060547 C213.017903,721.862629 212.75814,721.766764 212.455078,721.772949 C212.152017,721.779134 211.892254,721.890461 211.675781,722.106934 L208.809082,724.973633 C208.59261,725.190105 208.484375,725.456053 208.484375,725.771484 C208.484375,726.086916 208.59261,726.352864 208.809082,726.569336 L209.885254,727.63623 C210.101726,727.852703 210.367674,727.960938 210.683105,727.960938 C210.998537,727.960938 211.264485,727.852703 211.480957,727.63623 L214.356934,724.760254 C214.567221,724.549966 214.675456,724.294842 214.681641,723.994873 C214.687826,723.694904 214.585776,723.436687 214.375488,723.220215 L215.13623,722.524414 C215.525881,722.951174 215.714518,723.452146 215.702148,724.027344 C215.689779,724.602542 215.479494,725.094236 215.071289,725.502441 L212.20459,728.369141 C211.7902,728.789716 211.283043,729 210.683105,729 C210.083168,729 209.576011,728.789716 209.161621,728.369141 L208.085449,727.292969 Z M212.529297,723.925293 C212.424153,723.820149 212.371582,723.696453 212.371582,723.554199 C212.371582,723.411946 212.424153,723.294434 212.529297,723.20166 L216.249512,719.481445 C216.342286,719.376302 216.459797,719.32373 216.602051,719.32373 C216.744304,719.32373 216.868001,719.376302 216.973145,719.481445 C217.065918,719.574219 217.112305,719.694823 217.112305,719.843262 C217.112305,719.9917 217.065918,720.112304 216.973145,720.205078 L213.25293,723.925293 C213.160156,724.018067 213.039552,724.064453 212.891113,724.064453 C212.742675,724.064453 212.622071,724.018067 212.529297,723.925293 Z M214.375488,720.891602 C213.979653,720.464842 213.787923,719.962324 213.800293,719.384033 C213.812663,718.805743 214.022947,718.312502 214.431152,717.904297 L217.297852,715.037598 C217.718427,714.623208 218.225583,714.416016 218.819336,714.416016 C219.413089,714.416016 219.920245,714.623208 220.34082,715.037598 L221.416992,716.11377 C221.837567,716.534345 222.047852,717.041501 222.047852,717.635254 C222.047852,718.229007 221.837567,718.736163 221.416992,719.156738 L218.550293,722.023438 C218.142088,722.431643 217.650394,722.641927 217.075195,722.654297 C216.499997,722.666667 215.999026,722.478029 215.572266,722.088379 L216.268066,721.327637 C216.484539,721.537924 216.742756,721.639974 217.042725,721.633789 C217.342694,721.627604 217.597818,721.51937 217.808105,721.309082 L220.684082,718.433105 C220.906739,718.229003 221.018066,717.963055 221.018066,717.635254 C221.018066,717.307453 220.906739,717.041505 220.684082,716.837402 L219.617188,715.76123 C219.400715,715.544758 219.134767,715.436523 218.819336,715.436523 C218.503905,715.436523 218.237957,715.544758 218.021484,715.76123 L215.154785,718.62793 C214.938313,718.844402 214.826986,719.104165 214.820801,719.407227 C214.814616,719.710288 214.910481,719.970051 215.108398,720.186523 L214.375488,720.891602 Z" id="9"></path>
            </g>
        </g>
    </g>
</svg>