<svg height="16" viewBox="0 0 18 16" width="18" xmlns="http://www.w3.org/2000/svg"><g fill="none" fill-rule="evenodd"><g fill="#000" fill-rule="nonzero" transform="translate(.54 .26)"><path d="m15.624 2.646c-2.784 0-4.872 0-6.264 0-1.792 0-4.48 0-8.064 0-.702 0-1.278-.576-1.278-1.278s.576-1.278 1.278-1.278h14.31c.702 0 1.278.576 1.278 1.278s-.558 1.278-1.26 1.278z"/><path d="m15.2755259 9.018h-13.62607358c-.89614987 0-1.63145232-.576-1.63145232-1.278s.73530245-1.278 1.63145232-1.278h13.60309538c.8961498 0 1.6314523.576 1.6314523 1.278s-.7123243 1.278-1.6084741 1.278z"/><path d="m14.6330865 15.39h-12.36417297c-1.23641729 0-2.25091353-.576-2.25091353-1.278s1.01449624-1.278 2.25091353-1.278h12.36417297c1.2364173 0 2.2509135.576 2.2509135 1.278s-1.0144962 1.278-2.2509135 1.278z"/></g><path d="m0-1h18v18h-18z"/></g></svg>