<?xml version="1.0" encoding="UTF-8"?>
<svg width="11px" height="10px" viewBox="0 0 11 10" version="1.1" xmlns="http://www.w3.org/2000/svg" xmlns:xlink="http://www.w3.org/1999/xlink">
    <!-- Generator: Sketch 54.1 (76490) - https://sketchapp.com -->
    <title>Shape</title>
    <desc>Created with Sketch.</desc>
    <g id="Design" stroke="none" stroke-width="1" fill="none" fill-rule="evenodd">
        <g id="Load-more" transform="translate(-215.000000, -359.000000)" fill="#FFFFFF" fill-rule="nonzero">
            <path d="M217.443403,360.575783 L217.400378,360.545788 L217.344541,360.627628 L217.344541,359.51551 C217.344541,359.294383 217.16749,359.11512 216.949076,359.11512 L216.395452,359.11512 C216.177038,359.11512 216,359.294383 216,359.51551 L216,362.798798 C216,363.019938 216.177038,363.199201 216.395452,363.199201 L219.638158,363.199201 C219.856559,363.199201 220.033609,363.019938 220.033609,362.798798 L220.033609,362.238239 C220.033609,362.017099 219.856559,361.837836 219.638158,361.837836 L218.444683,361.837836 C218.739548,361.492464 219.137046,361.167029 219.455265,361.002001 C219.613439,360.921923 219.771624,360.841845 219.919912,360.791787 C220.068213,360.731735 220.226399,360.691696 220.384572,360.661663 C220.582298,360.621624 220.839346,360.601599 221.046957,360.601599 C222.885812,360.601599 224.428079,362.143145 224.428079,364.035036 C224.428079,364.065068 224.408308,364.365367 224.388526,364.525523 C224.299548,365.106108 224.062282,365.736738 223.558082,366.337336 C223.192286,366.767771 222.460705,367.268265 221.788435,367.398401 C221.333661,367.488486 221.10628,367.84885 221.10628,368.199194 C221.10628,368.619623 221.422639,369 221.887298,369 C222.065241,369 222.381613,368.899896 222.539786,368.849851 C223.261494,368.619623 223.993074,368.229227 224.695,367.458454 C225.30796,366.777778 225.634204,366.077076 225.822044,365.386381 C225.911022,365.066069 225.960447,364.695698 226,364.375374 L226,363.714711 C226,363.364366 225.822044,362.633632 225.723181,362.373372 C224.8433,359.950955 222.777064,359 221.046957,359 C220.720713,359 220.384572,359.020026 220.078098,359.090097 C219.840832,359.140143 219.603554,359.210214 219.366288,359.290292 C218.734215,359.51765 218.046156,359.936102 217.443403,360.575783 Z" id="Shape" transform="translate(221.000000, 364.000000) rotate(-1.000000) translate(-221.000000, -364.000000) "></path>
        </g>
    </g>
</svg>