<?xml version="1.0" encoding="UTF-8"?>
<svg width="11px" height="11px" viewBox="0 0 11 11" version="1.1" xmlns="http://www.w3.org/2000/svg" xmlns:xlink="http://www.w3.org/1999/xlink">
    <!-- Generator: Sketch 54.1 (76490) - https://sketchapp.com -->
    <title>Shape</title>
    <desc>Created with Sketch.</desc>
    <g id="Design" stroke="none" stroke-width="1" fill="none" fill-rule="evenodd">
        <g id="Desktop-colors-fixed-session" transform="translate(-1212.000000, -768.000000)" fill="#242A40" fill-rule="nonzero">
            <g id="Heatmap-and-tools" transform="translate(243.000000, 737.000000)">
                <path d="M970.502403,32.6162024 L970.457619,32.5854384 L970.399499,32.6693778 L970.399499,31.5287333 C970.399499,31.3019342 970.215211,31.1180729 969.98787,31.1180729 L969.411616,31.1180729 C969.184274,31.1180729 969,31.3019342 969,31.5287333 L969,34.896239 C969,35.1230511 969.184274,35.3069124 969.411616,35.3069124 L972.786867,35.3069124 C973.014196,35.3069124 973.198483,35.1230511 973.198483,34.896239 L973.198483,34.3213016 C973.198483,34.0944895 973.014196,33.9106283 972.786867,33.9106283 L971.54461,33.9106283 C971.851527,33.5563965 972.265273,33.2226139 972.5965,33.0533537 C972.761138,32.9712216 972.92579,32.8890895 973.080139,32.8377473 C973.234501,32.7761547 973.399153,32.7350886 973.563791,32.7042859 C973.769599,32.6632198 974.037155,32.6426804 974.253252,32.6426804 C976.16727,32.6426804 977.772576,34.2237681 977.772576,36.1641869 C977.772576,36.1949897 977.751998,36.5029915 977.731407,36.6672556 C977.638792,37.2627326 977.391828,37.9095389 976.867019,38.5255424 C976.486271,38.9670185 975.724787,39.4803504 975.025038,39.6138247 C974.551674,39.7062201 974.314999,40.0758274 974.314999,40.4351585 C974.314999,40.8663712 974.644289,41.2565051 975.127941,41.2565051 C975.313158,41.2565051 975.642461,41.1538335 975.8071,41.1025042 C976.558307,40.8663712 977.319791,40.4659612 978.050408,39.6754173 C978.688423,38.9772817 979.028002,38.2586067 979.223521,37.5501949 C979.316135,37.2216665 979.367581,36.841796 979.40875,36.5132547 L979.40875,35.8356457 C979.40875,35.4763146 979.223521,34.7268368 979.120617,34.4599011 C978.20477,31.9753475 976.054077,31 974.253252,31 C973.913672,31 973.563791,31.0205395 973.24479,31.0924083 C972.997826,31.1437376 972.750849,31.2156064 972.503885,31.2977385 C971.845976,31.530928 971.129793,31.960114 970.502403,32.6162024 Z" id="Shape"></path>
            </g>
        </g>
    </g>
</svg>